<?xml version="1.0" standalone="no"?>
<!DOCTYPE svg PUBLIC "-//W3C//DTD SVG 20010904//EN"
 "http://www.w3.org/TR/2001/REC-SVG-20010904/DTD/svg10.dtd">
<svg version="1.0" xmlns="http://www.w3.org/2000/svg"
 width="260.000000pt" height="260.000000pt" viewBox="0 0 260.000000 260.000000"
 preserveAspectRatio="xMidYMid meet">
<metadata>
Created by potrace 1.11, written by Peter Selinger 2001-2013
</metadata>
<g transform="translate(0.000000,260.000000) scale(0.100000,-0.100000)"
fill="#000000" stroke="none">
<path d="M0 1300 l0 -1300 1300 0 1300 0 0 1300 0 1300 -1300 0 -1300 0 0
-1300z m1556 828 c125 -37 213 -111 265 -221 35 -77 49 -146 49 -251 0 -226
-108 -391 -298 -454 -37 -12 -112 -17 -347 -21 l-300 -6 -3 -362 -2 -363 -95
0 -95 0 0 851 0 851 388 -5 c308 -3 398 -7 438 -19z"/>
<path d="M922 1663 l3 -308 250 -3 c151 -1 271 2 302 8 65 14 126 58 155 112
21 39 23 56 23 188 0 131 -2 150 -23 191 -24 50 -77 93 -133 109 -19 6 -157
10 -307 10 l-272 0 2 -307z"/>
</g>
</svg>
